<?xml version="1.0" encoding="UTF-8" ?>
<!DOCTYPE svg PUBLIC "-//W3C//DTD SVG 1.1//EN" "http://www.w3.org/Graphics/SVG/1.1/DTD/svg11.dtd">
<svg width="382pt" height="364pt" viewBox="0 0 382 364" version="1.1" xmlns="http://www.w3.org/2000/svg">
<path fill="#FFFFFF" d=" M 156.06 27.19 C 168.18 20.59 182.30 18.07 196.00 18.61 C 202.61 18.47 209.38 18.37 215.69 20.68 C 223.95 23.66 232.40 26.53 239.78 31.42 C 247.93 36.98 255.65 43.47 261.09 51.80 C 270.42 65.74 277.65 81.89 277.69 98.94 C 277.83 108.09 277.14 117.47 273.57 126.01 C 263.37 123.73 253.30 120.88 243.15 118.35 C 245.38 108.26 246.33 97.59 243.10 87.60 C 240.17 76.02 232.13 66.42 222.68 59.44 C 217.08 55.87 210.82 52.51 204.01 52.48 C 197.14 52.46 190.26 50.65 183.41 51.99 C 169.67 54.56 157.85 63.88 150.36 75.46 C 145.81 82.17 143.65 90.19 142.57 98.15 C 141.27 116.17 150.30 134.46 165.32 144.51 C 170.72 148.49 177.21 150.40 183.15 153.36 C 167.81 179.63 152.25 205.77 136.56 231.83 C 135.64 233.50 134.76 235.47 135.45 237.40 C 136.99 241.67 139.86 245.50 140.34 250.13 C 141.08 257.58 140.46 265.39 137.09 272.19 C 133.83 278.96 128.09 284.31 121.47 287.75 C 117.90 289.59 114.18 291.51 110.08 291.64 C 102.96 291.90 95.43 291.82 89.06 288.18 C 82.83 284.58 76.65 280.04 73.42 273.41 C 67.88 262.28 67.62 248.22 74.23 237.48 C 78.13 229.80 85.96 225.29 93.81 222.54 C 98.43 220.69 103.61 221.77 108.29 220.10 C 110.05 218.55 111.04 216.35 112.24 214.38 C 121.19 198.35 131.03 182.84 139.95 166.80 C 130.74 158.07 122.65 147.97 117.34 136.38 C 113.93 128.94 111.90 120.92 110.74 112.84 C 110.24 106.90 110.38 100.92 110.46 94.96 C 110.39 87.04 112.88 79.38 115.68 72.06 C 120.34 60.59 126.89 49.58 136.31 41.37 C 142.25 35.81 149.28 31.62 156.06 27.19 Z" />
<path fill="#FFFFFF" d=" M 181.90 70.17 C 187.26 67.60 193.37 68.71 199.09 68.51 C 202.86 68.35 206.40 69.78 209.68 71.49 C 225.30 78.69 235.22 98.49 228.78 115.01 C 227.50 118.33 225.69 121.45 224.70 124.89 C 225.13 126.42 225.92 127.82 226.66 129.22 C 235.99 145.60 245.21 162.05 254.24 178.59 C 262.39 176.72 270.51 173.91 278.97 174.38 C 285.97 174.60 293.08 173.79 299.98 175.33 C 304.65 176.30 309.43 177.05 313.82 179.00 C 324.82 183.97 335.46 190.32 343.55 199.42 C 356.94 212.93 365.82 230.97 367.50 249.98 C 367.75 255.33 367.72 260.69 367.47 266.04 C 364.38 295.20 345.32 322.12 318.73 334.55 C 310.42 337.68 301.93 340.78 293.02 341.53 C 287.66 341.74 282.30 341.58 276.95 341.62 C 269.24 341.67 261.92 338.95 254.68 336.63 C 245.14 333.78 236.64 328.24 229.16 321.77 C 227.11 319.95 224.89 318.18 223.49 315.78 C 223.44 314.13 224.97 313.12 225.92 311.99 C 230.85 307.23 235.69 302.37 240.48 297.48 C 242.13 295.93 243.69 294.03 245.94 293.39 C 250.29 296.25 253.81 300.27 258.50 302.63 C 263.40 305.13 268.66 307.01 274.01 308.27 C 280.31 309.02 286.72 308.91 293.04 308.40 C 306.65 305.76 319.34 297.60 326.52 285.61 C 335.90 271.96 336.99 253.69 331.28 238.39 C 328.65 231.42 323.53 225.83 318.24 220.76 C 313.12 215.68 306.84 211.90 300.19 209.20 C 292.42 206.65 284.11 207.68 276.07 207.62 C 264.77 207.86 255.13 214.87 247.21 222.31 C 245.09 223.89 243.38 221.34 242.50 219.65 C 229.40 196.12 215.88 172.83 202.70 149.34 C 200.99 146.37 199.58 143.12 197.18 140.63 C 194.76 139.15 191.74 139.78 189.06 139.35 C 171.50 137.41 157.71 120.46 158.47 102.97 C 158.12 93.47 163.83 85.37 169.51 78.31 C 172.70 74.37 177.44 72.29 181.90 70.17 Z" />
<path fill="#FFFFFF" d=" M 65.30 181.45 C 71.34 178.39 77.88 176.53 84.29 174.43 C 86.14 179.15 87.70 183.96 88.67 188.94 C 89.67 194.04 91.54 198.94 92.38 204.07 C 92.90 206.71 89.65 207.29 87.87 208.08 C 71.83 213.07 58.50 226.40 54.09 242.68 C 51.12 254.14 51.92 266.62 56.75 277.46 C 61.75 289.64 72.46 298.80 84.36 303.94 C 96.99 309.42 111.60 308.32 124.22 303.41 C 134.12 299.47 141.78 291.39 147.33 282.49 C 153.49 272.96 155.51 261.15 154.07 249.99 C 153.62 246.85 153.29 243.70 153.09 240.54 C 161.74 240.48 170.40 240.49 179.05 240.46 C 183.38 240.35 187.63 241.47 191.95 241.44 C 210.99 241.48 230.02 241.41 249.05 241.43 C 253.46 234.00 259.77 227.43 267.84 224.04 C 273.58 221.49 280.00 222.53 286.09 222.34 C 293.21 221.98 299.49 226.00 304.79 230.30 C 311.51 235.67 315.60 243.80 317.19 252.16 C 318.19 261.33 316.30 271.16 310.56 278.56 C 304.91 286.34 296.01 292.73 286.06 292.57 C 279.53 292.70 272.48 293.69 266.57 290.23 C 258.61 286.57 252.73 279.74 248.31 272.35 C 227.89 272.67 207.44 272.13 187.03 272.58 C 184.56 275.75 184.25 280.09 182.75 283.76 C 175.79 301.92 164.03 319.21 146.59 328.64 C 135.57 335.46 122.81 338.70 110.07 340.29 C 103.23 340.37 96.30 340.89 89.53 339.72 C 70.42 336.15 52.58 325.91 39.82 311.24 C 24.26 293.55 16.95 268.92 20.20 245.62 C 22.99 227.08 31.42 209.15 45.19 196.26 C 51.43 190.74 57.88 185.32 65.30 181.45 Z" />
</svg>
